<?xml version="1.0" encoding="UTF-8"?><svg id="Layer_1" xmlns="http://www.w3.org/2000/svg" xmlns:xlink="http://www.w3.org/1999/xlink" viewBox="0 0 165.46 172.8"><defs><style>.cls-1{fill:url(#linear-gradient);}.cls-2{fill:#fff;}</style><linearGradient id="linear-gradient" x1="22.01" y1="86.4" x2="143.45" y2="86.4" gradientUnits="userSpaceOnUse"><stop offset="0" stop-color="#0b2f55"/><stop offset="1" stop-color="#1c3e71"/></linearGradient></defs><circle class="cls-1" cx="82.73" cy="86.4" r="60.72"/><path class="cls-2" d="m106.33,71.58c.75-2.8,1.51-5.6,2.24-8.4.16-.6.38-1.05,1.14-.92.14-.5.27-.96.4-1.43.51-1.79,2.16-2.79,3.85-2.34,1.71.46,2.65,2.13,2.2,3.93-.08.32-.15.63-.25.94-.1.31-.1.51.22.76.2.16.3.64.22.92-1.5,5.68-3.02,11.35-4.56,17.02-.07.24-.27.6-.46.62-.53.08-.57.43-.68.82-1.42,5.29-2.84,10.58-4.25,15.88-.12.46-.19.96-.19,1.44-.01,6.79,0,13.58,0,20.37,0,1.17-.12,1.29-1.26,1.29-16.72,0-33.44,0-50.16,0-1.1,0-1.22-.11-1.22-1.18,0-19.37,0-38.75,0-58.12,0-.53.16-.91.53-1.29,2.91-2.88,5.8-5.78,8.68-8.68.35-.36.71-.52,1.22-.52,13.7.01,27.39,0,41.09.01.95,0,1.11.17,1.11,1.16,0,5.65,0,11.3,0,16.95v.76s.08,0,.12,0Zm-51.33,49.45h49.79v-15.37c-1.13,2.07-2.21,4-3.26,5.96-.28.53-.58.95-1.27.81-.25.92-.5,1.79-.72,2.67-.13.5-.33.94-.93.78-.6-.16-.56-.65-.42-1.14.24-.89.47-1.78.73-2.73-.69-.14-.71-.62-.7-1.15.04-1.81.05-3.63.12-5.44.03-.74.11-1.49.3-2.2,1.95-7.36,3.92-14.71,5.9-22.11-.59-.31-.57-.78-.42-1.36.27-1,.65-2.03.66-3.04.06-7.3.03-14.6.03-21.9,0-.22-.02-.45-.03-.68h-40.5c0,.28,0,.53,0,.78,0,2.42,0,4.84,0,7.26,0,1.14-.13,1.26-1.29,1.26-2.42,0-4.84,0-7.25,0-.25,0-.49,0-.74,0v57.59Zm48.51-16.25c2.01-7.5,4-14.92,6-22.39-1.27-.34-2.42-.65-3.6-.97-2.01,7.52-4,14.94-6,22.4,1.24.33,2.38.63,3.61.96Zm7.87-26.54c1.18-4.39,2.34-8.73,3.51-13.11-1.71-.46-3.33-.89-5.03-1.34-1.18,4.4-2.34,8.74-3.51,13.11,1.69.45,3.3.88,5.03,1.34Zm-48.55-16.22v-6.49c-2.12,2.12-4.35,4.35-6.49,6.49h6.49Zm36.87,43.2v5.5c.39.28.66.2.89-.27.42-.85.9-1.67,1.36-2.5.33-.6.66-1.2,1.01-1.85-1.11-.3-2.11-.56-3.26-.87Zm14.71-41.66c.16-.57.3-1.06.43-1.55.03-.13.04-.28.05-.41.03-.88-.54-1.62-1.35-1.77-.86-.16-1.66.25-1.96,1.07-.2.56-.33,1.15-.5,1.77,1.13.3,2.2.59,3.34.9Zm-3.39,16.03c-1.72-.46-3.34-.89-5.02-1.34-.15.56-.28,1.07-.43,1.62.87.24,1.69.47,2.52.69.82.22,1.64.43,2.5.65.15-.56.28-1.05.43-1.62Z"/><path class="cls-2" d="m79.14,83.14c.01-.3.03-.53.03-.75,0-4.84,0-9.67,0-14.51,0-.44-.04-.74-.54-.96-1-.44-1.43-1.34-1.53-2.55-.79.13-1.55.18-2.27.39-2.02.58-4.06.99-6.29.7.14.29.22.49.33.68,1,1.84,2.02,3.66,2.99,5.51.2.39.32.88.29,1.32-.16,2.52-2.47,4.52-5.09,4.46-2.52-.06-4.72-2.15-4.8-4.62-.01-.33.06-.7.22-.99,1.3-2.44,2.65-4.85,3.95-7.29.29-.54.66-.73,1.24-.6,2.09.45,4.15.22,6.2-.31,1.09-.28,2.23-.35,3.35-.53.18-.03.39-.12.52-.25,1.4-1.4,2.86-1.39,4.31.04.1.1.27.22.4.21,1.57-.12,3.02.43,4.51.78,1.65.4,3.32.43,4.98.09.69-.14,1.11.02,1.46.68,1.2,2.28,2.43,4.55,3.71,6.78.46.8.49,1.56.25,2.4-.67,2.32-2.94,3.86-5.32,3.61-2.42-.26-4.34-2.26-4.46-4.69-.02-.32.11-.69.27-.98,1.01-1.89,2.04-3.76,3.06-5.63.09-.16.16-.32.34-.67-3.03.6-5.7-.78-8.57-1.04-.16,1.32-.71,2.28-1.93,2.74-.1.04-.18.27-.18.41,0,5.14,0,10.28.01,15.42,0,.04.04.08.1.2.75,0,1.53,0,2.31,0,1.76,0,2.68.92,2.69,2.66q.01,2-1.96,2c-2.81,0-5.63,0-8.44,0-1.07,0-1.12-.13-1.2-1.21-.2-2.9,1.18-3.61,3.43-3.45.53.04,1.06,0,1.62,0Zm10.33-11.5h6.16c-1.04-1.89-2.03-3.71-3.08-5.64-1.06,1.94-2.05,3.76-3.08,5.64Zm-19.17.02c-1.04-1.9-2.04-3.73-3.09-5.66-1.05,1.93-2.05,3.76-3.09,5.66h6.17Zm-6.53,1.47c.18,1.65,1.78,2.93,3.56,2.88,1.68-.04,3.24-1.4,3.3-2.88h-6.87Zm32.24,0h-6.91c.26,1.67,1.78,2.9,3.53,2.87,1.68-.02,3.18-1.27,3.39-2.87Zm-11.79,13.22c.24-1.45-.07-1.82-1.48-1.82-1.9,0-3.8,0-5.71,0-1.41,0-1.69.34-1.45,1.82h8.64Zm-5.65-21.89c-.02.76.52,1.35,1.26,1.38.77.03,1.4-.55,1.41-1.31,0-.72-.58-1.33-1.31-1.35-.73-.02-1.34.55-1.36,1.29Z"/><path class="cls-2" d="m77.85,106.35c-5.28,0-10.55,0-15.83,0-.21,0-.42,0-.63,0-.44,0-.8-.15-.82-.65-.02-.54.35-.71.82-.73.19,0,.37,0,.56,0,10.62,0,21.24,0,31.86,0,.23,0,.51-.07.69.04.26.16.62.43.63.67,0,.22-.36.5-.62.66-.17.1-.45.03-.69.03-5.32,0-10.64,0-15.96,0Z"/><path class="cls-2" d="m76.27,96.62c4.76,0,9.53,0,14.29,0,.23,0,.51-.07.69.03.26.15.63.43.63.65,0,.23-.36.51-.62.68-.15.1-.41.03-.62.03-9.6,0-19.19,0-28.79,0-.54,0-1.25.13-1.26-.69,0-.85.72-.69,1.25-.69,4.81,0,9.62,0,14.43,0Z"/><path class="cls-2" d="m86.05,92.44c3.67,0,7.34,0,11.01,0,.21,0,.46-.07.62.03.24.15.57.4.58.62,0,.23-.29.51-.52.69-.12.1-.36.05-.54.05-7.45,0-14.91,0-22.36,0-.19,0-.43.06-.54-.04-.24-.2-.53-.48-.55-.74-.01-.19.36-.45.61-.59.16-.09.41-.03.62-.03,3.69,0,7.39,0,11.08,0Z"/><path class="cls-2" d="m83.34,102.18c-3.6,0-7.2,0-10.8,0-.21,0-.42,0-.63,0-.42-.03-.72-.22-.72-.68,0-.45.28-.66.71-.69.21-.01.42-.01.63-.01,7.25,0,14.5,0,21.74,0,.99,0,1.39.2,1.32.72-.11.81-.76.67-1.3.67-3.65,0-7.29,0-10.94,0Z"/><path class="cls-2" d="m77.05,110.52c-1.62,0-3.25,0-4.87,0-.5,0-.99-.05-.99-.69,0-.63.49-.71.99-.71,3.25,0,6.5,0,9.75,0,.05,0,.09,0,.14,0,.46.02.85.16.85.71,0,.55-.38.69-.85.68-1.67,0-3.34,0-5.01,0Z"/><path class="cls-2" d="m65.06,93.84c-1.21,0-2.42.01-3.63,0-.61,0-1.02-.39-.83-.82.12-.26.53-.54.81-.54,2.44-.04,4.88-.02,7.32-.03.46,0,.8.16.83.65.02.52-.33.74-.81.74-1.23,0-2.46,0-3.7,0Z"/><path class="cls-2" d="m63.82,102.18c-.79,0-1.58,0-2.37,0-.46,0-.86-.12-.88-.67-.02-.6.41-.72.89-.72,1.58,0,3.16,0,4.74,0,.48,0,.85.17.85.7,0,.53-.39.69-.87.69-.79,0-1.58,0-2.37,0Z"/><path class="cls-2" d="m63.81,110.52c-.81,0-1.63,0-2.44,0-.45,0-.79-.17-.8-.67-.01-.5.33-.71.77-.71,1.65-.01,3.3-.01,4.95,0,.45,0,.78.24.77.72-.01.48-.35.67-.81.67-.81,0-1.63,0-2.44,0Z"/><path class="cls-2" d="m95.58,96.63c.23,0,.5-.08.68.02.27.14.47.41.71.62-.23.24-.42.63-.69.7-.43.12-.94.11-1.37,0-.26-.07-.45-.43-.67-.65.24-.23.45-.5.73-.67.15-.09.41-.02.61-.01Z"/></svg>