<?xml version="1.0" encoding="UTF-8"?><svg id="Layer_1" xmlns="http://www.w3.org/2000/svg" viewBox="0 0 646.79 294.78"><defs><style>.cls-1{font-size:33.14px;}.cls-1,.cls-2,.cls-3,.cls-4{fill:#fff;}.cls-1,.cls-3,.cls-4{font-family:TrajanPro3-Regular, 'Trajan Pro 3';}.cls-5{letter-spacing:-.04em;}.cls-6{letter-spacing:-.04em;}.cls-7{letter-spacing:0em;}.cls-8{letter-spacing:-.02em;}.cls-9{letter-spacing:-.07em;}.cls-10{letter-spacing:-.07em;}.cls-11{letter-spacing:0em;}.cls-12{letter-spacing:0em;}.cls-13{letter-spacing:-.03em;}.cls-14{letter-spacing:0em;}.cls-15{letter-spacing:.06em;}.cls-3{font-size:25.02px;}.cls-16{letter-spacing:0em;}.cls-17{letter-spacing:0em;}.cls-18{letter-spacing:0em;}.cls-19{letter-spacing:-.04em;}.cls-20{letter-spacing:.03em;}.cls-21{letter-spacing:0em;}.cls-22{letter-spacing:0em;}.cls-4{font-size:37.66px;}.cls-23{letter-spacing:-.03em;}.cls-24{letter-spacing:.07em;}</style></defs><path class="cls-2" d="m60.58,70.13c-3.76-9.57-6.32-11.45-12.3-13.16-2.56-.68-5.47-.68-6.49-.68s-1.37-.51-1.37-1.2c0-1.03,1.71-1.2,4.44-1.2,8.2,0,17.43.52,19.48.52,1.71,0,9.06-.52,15.55-.52,3.08,0,4.62.34,4.62,1.2s-.51,1.2-1.71,1.2c-1.88,0-4.96.17-6.49.85-1.88.86-2.22,2.23-2.22,3.42,0,1.54,1.54,6.16,3.42,10.94l34.86,90.77c9.91-22.91,32.81-82.57,36.57-94.87.86-2.57,1.54-4.96,1.54-6.5,0-1.37-.51-3.08-2.22-3.93-2.05-.68-4.61-.68-6.49-.68-1.03,0-1.88-.17-1.88-1.03,0-1.03,1.03-1.37,3.76-1.37,6.83,0,14.7.52,16.75.52,1.03,0,8.37-.52,13.33-.52,1.88,0,2.91.34,2.91,1.2s-.68,1.2-2.05,1.2c-1.2,0-4.96,0-8.2,2.05-2.22,1.54-4.78,4.44-9.4,16.07-1.88,4.79-10.42,25.3-19.14,46.33-10.42,24.96-18.11,43.42-22.04,51.8-4.78,10.26-5.47,12.99-7.18,12.99-2.05,0-2.91-2.39-6.15-10.6l-41.87-104.79Z"/><path class="cls-2" d="m149.85,158.05c0-26.67,0-31.45-.34-36.93-.34-5.81-1.71-8.55-7.35-9.74-1.37-.34-4.27-.52-5.81-.52-.68,0-1.37-.34-1.37-1.03,0-1.03.85-1.37,2.73-1.37,7.69,0,17.95.52,19.31.52,3.76,0,13.67-.52,21.53-.52,21.36,0,29.05,7.18,31.79,9.75,3.76,3.59,8.54,11.28,8.54,22.39,0,22.22-17.77,38.64-42.04,38.64-.86,0-2.74,0-3.59-.17-.85,0-1.88-.34-1.88-1.2,0-1.37,1.03-1.54,4.61-1.54,16.58,0,29.56-11.28,29.56-29.23,0-4.27-.51-15.73-9.57-24.96-9.06-9.23-19.48-8.55-23.41-8.55-2.91,0-5.81.34-7.35,1.03-1.03.34-1.37,1.54-1.37,3.25v70.26c0,16.41,0,29.92.85,37.1.52,4.96,1.54,8.72,6.67,9.4,2.39.34,6.15.68,7.69.68,1.03,0,1.37.51,1.37,1.03,0,.85-.86,1.36-2.74,1.36-9.4,0-20.16-.51-21.02-.51-.51,0-11.28.51-16.41.51-1.88,0-2.73-.34-2.73-1.36,0-.52.34-1.03,1.37-1.03,1.54,0,3.59-.34,5.13-.68,3.42-.68,4.27-4.45,4.95-9.4.86-7.18.86-20.69.86-37.1v-30.09Z"/><text class="cls-3" transform="translate(261.2 203.16)"><tspan x="0" y="0">Imm</tspan><tspan class="cls-22" x="57.24" y="0">i</tspan><tspan x="66.8" y="0">g</tspan><tspan class="cls-20" x="85.84" y="0">r</tspan><tspan class="cls-10" x="103.23" y="0">a</tspan><tspan class="cls-17" x="116.92" y="0">t</tspan><tspan class="cls-22" x="132.1" y="0">i</tspan><tspan x="141.66" y="0">on </tspan><tspan class="cls-15" x="191.05" y="0">L</tspan><tspan class="cls-5" x="207.36" y="0">a</tspan><tspan class="cls-12" x="221.8" y="0">w </tspan><tspan class="cls-23" x="254.1" y="0">F</tspan><tspan x="268.11" y="0">irm</tspan></text><path class="cls-2" d="m244.27,39.35c.65,69.22.66,146.87,0,216.08-.66-69.22-.65-146.87,0-216.08h0Z"/><text class="cls-4" transform="translate(262.99 108.67)"><tspan class="cls-16" x="0" y="0">t</tspan><tspan x="22.86" y="0">he vin</tspan><tspan class="cls-18" x="158.35" y="0">e</tspan><tspan class="cls-13" x="178.39" y="0">s</tspan><tspan class="cls-21" x="196.61" y="0">h </tspan><tspan class="cls-19" x="240.71" y="0">p</tspan><tspan class="cls-9" x="260.75" y="0">a</tspan><tspan class="cls-16" x="281.35" y="0">t</tspan><tspan class="cls-8" x="304.2" y="0">e</tspan><tspan x="323.82" y="0">l</tspan></text><text class="cls-1" transform="translate(261.23 145.8)"><tspan class="cls-24" x="0" y="0">l</tspan><tspan class="cls-6" x="19.58" y="0">a</tspan><tspan x="38.7" y="0">w </tspan><tspan class="cls-14" x="81.48" y="0">f</tspan><tspan x="98.62" y="0">irm </tspan><tspan class="cls-11" x="175.1" y="0">p</tspan><tspan x="193.69" y="0">l</tspan><tspan class="cls-7" x="211.05" y="0">l</tspan><tspan x="228.32" y="0">c</tspan></text></svg>