<?xml version="1.0" encoding="UTF-8"?><svg id="Layer_1" xmlns="http://www.w3.org/2000/svg" xmlns:xlink="http://www.w3.org/1999/xlink" viewBox="0 0 165.46 172.8"><defs><style>.cls-1{fill:url(#linear-gradient);}.cls-2{fill:#fff;}</style><linearGradient id="linear-gradient" x1="22.01" y1="86.4" x2="143.45" y2="86.4" gradientUnits="userSpaceOnUse"><stop offset="0" stop-color="#0b2f55"/><stop offset="1" stop-color="#1c3e71"/></linearGradient></defs><circle class="cls-1" cx="82.73" cy="86.4" r="60.72"/><path class="cls-2" d="m74.17,78.21c.51-.51,1.24-1.4,1.62-2.33,1.31-3.23.71-3.85.71-3.85-.86-1.86-2.72-4.35-5.16-6.8-2.45-2.45-4.94-4.29-6.8-5.16,0,0-3.03-.93-5.3,1.35-.01,0,0,0-.02.02,0,0,0,0-.01,0h0c-.31.32-.6.63-.87.95l15.82,15.82Z"/><path class="cls-2" d="m106.41,101.92c-.86-1.86-2.71-4.35-5.16-6.8-2.44-2.45-4.94-4.3-6.8-5.16,0,0-.62-.6-3.85.72-.93.38-1.82,1.11-2.33,1.62l15.82,15.82c.31-.27.63-.56.94-.87h0s0,0,0,0c.02-.02.03-.01.02-.02,2.28-2.27,1.35-5.3,1.35-5.3Z"/><path class="cls-2" d="m86.57,94.57c-.5.67-1.29.95-2.24.95-2.88,0-7.19-2.58-9-4.38-2.4-2.4-6.16-9.21-3.44-11.24.15-.09.31-.19.47-.3l-15.4-15.4c-2.32,3.52-2.23,6.33-2.23,6.33,0,0-.4,12.78,14.01,27.19,13.64,13.64,25.83,14,27.08,14h.15c.38,0,3.03-.08,6.28-2.23l-15.4-15.4c-.1.16-.2.31-.29.47Z"/></svg>