<?xml version="1.0" encoding="UTF-8"?><svg id="Layer_1" xmlns="http://www.w3.org/2000/svg" xmlns:xlink="http://www.w3.org/1999/xlink" viewBox="0 0 182.67 186.58"><defs><style>.cls-1{fill:url(#linear-gradient);}.cls-2{opacity:.81;}</style><linearGradient id="linear-gradient" x1="3262.52" y1="292.32" x2="3393.68" y2="292.32" gradientTransform="translate(3419.43 385.61) rotate(-180)" gradientUnits="userSpaceOnUse"><stop offset="0" stop-color="#0b2f55"/><stop offset="1" stop-color="#1c3e71"/></linearGradient></defs><g class="cls-2"><path class="cls-1" d="m102.67,53.66c5.63-4.14,12.14-6.2,19.53-6.2,10.93,0,19.46,3.86,25.56,11.58,6.1,7.72,9.16,16.89,9.16,27.5,0,8.04-1.45,15.27-4.34,21.71-2.9,6.43-6.99,11.98-12.3,16.65-5.31,4.66-11.57,8.2-18.81,10.61-7.23,2.41-14.71,3.62-22.42,3.62v-4.88c11.26-2.28,19.77-5.93,25.56-10.97,5.79-5.04,8.68-12.76,8.68-23.15,0-5.85-.96-10.54-2.89-14.07-2.89,2.25-5.71,3.78-8.44,4.58-2.73.8-5.38,1.21-7.96,1.21-6.43,0-11.33-2.15-14.71-6.45-3.38-4.3-5.06-8.83-5.06-13.6,0-7.96,2.82-14.01,8.44-18.14Zm-68.48,0c5.63-4.14,12.14-6.2,19.53-6.2,10.93,0,19.61,3.86,26.04,11.58,6.43,7.72,9.64,16.89,9.64,27.5,0,8.04-1.6,15.27-4.82,21.71-3.21,6.43-7.47,11.98-12.78,16.65-5.31,4.66-11.57,8.2-18.81,10.61-7.23,2.41-14.71,3.62-22.42,3.62v-4.88c11.26-2.28,19.77-5.93,25.56-10.97,5.79-5.04,8.68-12.76,8.68-23.15,0-6.49-.96-11.18-2.89-14.07-2.9,2.25-5.71,3.78-8.44,4.58-2.73.8-5.38,1.21-7.96,1.21-6.43,0-11.33-2.15-14.71-6.45-3.38-4.3-5.06-8.83-5.06-13.6,0-7.96,2.82-14.01,8.44-18.14Z"/></g></svg>