<?xml version="1.0" encoding="UTF-8"?><svg id="Layer_1" xmlns="http://www.w3.org/2000/svg" xmlns:xlink="http://www.w3.org/1999/xlink" viewBox="0 0 206.68 186.58"><defs><style>.cls-1{fill:url(#linear-gradient);}.cls-2{opacity:.13;}</style><linearGradient id="linear-gradient" x1="20.85" y1="93.29" x2="185.83" y2="93.29" gradientUnits="userSpaceOnUse"><stop offset="0" stop-color="#0b2f55"/><stop offset="1" stop-color="#1c3e71"/></linearGradient></defs><g class="cls-2"><path class="cls-1" d="m89.09,143.14c-7.08,5.21-15.27,7.8-24.57,7.8-13.75,0-24.47-4.85-32.15-14.57-7.68-9.71-11.52-21.24-11.52-34.59,0-10.11,1.82-19.21,5.46-27.31,3.64-8.09,8.79-15.07,15.47-20.94,6.67-5.86,14.56-10.32,23.66-13.35,9.1-3.03,18.5-4.55,28.2-4.55v6.13c-14.16,2.86-24.87,7.46-32.15,13.8-7.28,6.33-10.92,16.04-10.92,29.12,0,7.36,1.21,13.26,3.64,17.7,3.64-2.83,7.18-4.75,10.62-5.77,3.43-1.01,6.77-1.52,10.01-1.52,8.09,0,14.25,2.7,18.5,8.11,4.25,5.41,6.37,11.1,6.37,17.11,0,10.01-3.54,17.62-10.61,22.81Zm86.13,0c-7.08,5.21-15.27,7.8-24.57,7.8-13.75,0-24.67-4.85-32.75-14.57-8.09-9.71-12.13-21.24-12.13-34.59,0-10.11,2.02-19.21,6.06-27.31,4.04-8.09,9.4-15.07,16.07-20.94,6.67-5.86,14.56-10.32,23.66-13.35,9.1-3.03,18.5-4.55,28.2-4.55v6.13c-14.16,2.86-24.87,7.46-32.15,13.8-7.28,6.33-10.92,16.04-10.92,29.12,0,8.16,1.21,14.06,3.64,17.7,3.64-2.83,7.18-4.75,10.62-5.77,3.43-1.01,6.77-1.52,10.01-1.52,8.09,0,14.25,2.7,18.5,8.11,4.25,5.41,6.37,11.1,6.37,17.11,0,10.01-3.54,17.62-10.61,22.81Z"/></g></svg>