<?xml version="1.0" encoding="UTF-8"?><svg id="Layer_1" xmlns="http://www.w3.org/2000/svg" xmlns:xlink="http://www.w3.org/1999/xlink" viewBox="0 0 328.92 318.49"><defs><style>.cls-1{fill:url(#linear-gradient);}.cls-2{fill:#fff;}</style><linearGradient id="linear-gradient" x1="31.2" y1="159.25" x2="297.72" y2="159.25" gradientUnits="userSpaceOnUse"><stop offset="0" stop-color="#0b2f55"/><stop offset="1" stop-color="#1c3e71"/></linearGradient></defs><circle class="cls-1" cx="164.46" cy="159.25" r="133.26"/><path class="cls-2" d="m125.42,125.75c-2.02-5.15-3.4-6.16-6.62-7.08-1.38-.37-2.94-.37-3.5-.37s-.74-.28-.74-.64c0-.55.92-.65,2.39-.65,4.41,0,9.38.28,10.48.28.92,0,4.87-.28,8.37-.28,1.66,0,2.48.18,2.48.65s-.28.64-.92.64c-1.01,0-2.67.09-3.5.46-1.01.46-1.2,1.2-1.2,1.84,0,.83.83,3.31,1.84,5.89l18.76,48.85c5.33-12.33,17.66-44.44,19.68-51.06.46-1.38.83-2.67.83-3.5,0-.74-.28-1.66-1.2-2.12-1.1-.37-2.48-.37-3.49-.37-.55,0-1.01-.09-1.01-.55,0-.55.55-.74,2.02-.74,3.68,0,7.91.28,9.01.28.55,0,4.51-.28,7.17-.28,1.01,0,1.56.18,1.56.65s-.37.64-1.1.64c-.65,0-2.67,0-4.42,1.1-1.2.83-2.57,2.39-5.06,8.65-1.01,2.58-5.61,13.62-10.3,24.93-5.61,13.43-9.75,23.37-11.86,27.88-2.57,5.52-2.94,6.99-3.86,6.99-1.1,0-1.56-1.29-3.31-5.7l-22.53-56.4Z"/><path class="cls-2" d="m173.46,173.07c0-14.35,0-16.93-.18-19.87-.18-3.13-.92-4.6-3.95-5.24-.74-.18-2.3-.28-3.13-.28-.37,0-.74-.18-.74-.55,0-.55.46-.74,1.47-.74,4.14,0,9.66.28,10.39.28,2.02,0,7.36-.28,11.59-.28,11.5,0,15.64,3.87,17.11,5.24,2.02,1.93,4.6,6.07,4.6,12.05,0,11.96-9.57,20.79-22.62,20.79-.46,0-1.47,0-1.93-.09-.46,0-1.01-.18-1.01-.64,0-.74.55-.83,2.48-.83,8.92,0,15.91-6.07,15.91-15.73,0-2.3-.28-8.47-5.15-13.43-4.87-4.97-10.48-4.6-12.6-4.6-1.56,0-3.13.18-3.95.55-.55.18-.74.83-.74,1.75v37.81c0,8.83,0,16.1.46,19.96.28,2.67.83,4.69,3.59,5.06,1.29.18,3.31.37,4.14.37.55,0,.74.28.74.55,0,.46-.46.73-1.47.73-5.06,0-10.85-.28-11.31-.28-.28,0-6.07.28-8.83.28-1.01,0-1.47-.18-1.47-.73,0-.28.18-.55.74-.55.83,0,1.93-.18,2.76-.37,1.84-.37,2.3-2.39,2.67-5.06.46-3.86.46-11.13.46-19.96v-16.19Z"/><path class="cls-2" d="m253.92,135.34c6.61,22.72,3.79,47.9-7.42,68.76-38.96,71.14-143.16,61.88-169.96-14.42-25.66-76.76,50.6-147.86,125.16-115.87,21.83,9.48,39.37,27.85,48.14,49.65-9.68-21.37-27.36-39.03-48.99-47.65-71.77-29.36-145.08,38.75-120.11,112.43,14.46,44.91,65.94,71.14,110.93,57.01,45.77-12.71,74.52-63.94,62.26-109.91h0Z"/></svg>